<!-- 
  This image symbolizes Text To Speech.

  As this MagicMirror² module runs in the background, there is no screenshot. For a nicer
  appearance in module lists, this image can be used instead of a screenshot.

  This image is a combination of two images from OpenClipart. Both are licensed under Public Domain.
  Source "Text File": https://openclipart.org/detail/97543/text-file-icon-by-kuba
  Source "Speaker": https://openclipart.org/detail/74875/audio-by-nomade

  License: Public Domain
-->
<svg xmlns="http://www.w3.org/2000/svg" xml:space="preserve" viewBox="0 0 170 170">
  <defs>
    <linearGradient id="a" x1="26.6" x2="119.2" y1="9.9" y2="9.9" gradientTransform="matrix(.88 0 0 1.14 -199 -38)" gradientUnits="userSpaceOnUse">
      <stop offset="0" stop-color="#dbdbdb"/>
      <stop offset="1" stop-color="#757575"/>
    </linearGradient>
  </defs>
  <path fill="#fff" fill-opacity=".9" d="M0 0h170v170H0z"/>
  <g color="#000" transform="translate(186 46)">
    <path fill="url(#a)" d="M-170-26c-3 0-6 2-6 5v94c0 4 3 6 6 6h70c3 0 5-2 5-6V3h-21c-4 0-8-3-8-8v-21Zm50 0v21c0 2 2 4 4 4h21z"/>
    <rect width="38" height="6.2" x="-165" y="-1" fill="#4d4d4d" rx="1.8" ry="1.8"/>
    <rect width="59.7" height="6.2" x="-165" y="28" fill="#4d4d4d" rx="1.8" ry="1.8"/>
    <rect width="38" height="6.2" x="-165" y="13" fill="#4d4d4d" rx="1.8" ry="1.8"/>
    <rect width="59.7" height="6.2" x="-165" y="42" fill="#4d4d4d" rx="1.8" ry="1.8"/>
    <rect width="59.7" height="6.2" x="-165" y="57" fill="#4d4d4d" rx="1.8" ry="1.8"/>
  </g>
  <path d="M67 96h18c3 0 5 3 5 6v26c0 4-2 6-5 6H67c-3 0-6-2-6-6v-26c0-3 3-6 6-6z"/>
  <g color="#000">
    <path d="M151 121 72 76l79-46Z" style="-inkscape-stroke:none" transform="matrix(.56 0 0 .85 27 51)"/>
    <path d="M149 27 70 72a4 4 0 0 0 0 7l79 46a4 4 0 0 0 6-4V30a4 4 0 0 0-6-3zm-2 10v78L80 76Z" style="-inkscape-stroke:none" transform="matrix(.56 0 0 .85 27 51)"/>
  </g>
  <g color="#000">
    <path d="M211 99a21 35 0 0 1-22 35 21 35 0 0 1-21-35 21 35 0 0 1 21-34 21 35 0 0 1 22 34Z" style="-inkscape-stroke:none" transform="matrix(.55 0 0 .76 0 40)"/>
    <path d="M189 61c-7 0-14 5-18 12-5 7-7 16-7 26 0 11 2 20 7 27 4 7 11 12 18 12 8 0 15-5 19-12a54 54 0 0 0 0-53c-4-7-11-12-19-12zm0 8c5 0 9 2 12 8 4 5 6 13 6 22s-2 17-6 23c-3 5-7 8-12 8-4 0-8-3-11-8-4-6-6-14-6-23s2-17 6-22c3-6 7-8 11-8z" style="-inkscape-stroke:none" transform="matrix(.55 0 0 .76 0 40)"/>
  </g>
  <path d="M123 62a6 6 0 0 0-4 1 6 6 0 0 0-2 9 42 42 0 0 1 0 49 6 6 0 0 0 1 8 6 6 0 0 0 9-1 54 54 0 0 0 0-63 6 6 0 0 0-4-3Z" color="#000" style="-inkscape-stroke:none" transform="matrix(.75 0 0 .79 38 39)"/>
  <path d="M145 52a8 8 0 0 0-6 1 8 8 0 0 0-2 11 55 55 0 0 1 0 64 8 8 0 0 0 2 11 8 8 0 0 0 11-1 70 70 0 0 0 0-83 8 8 0 0 0-5-3z" color="#000" style="-inkscape-stroke:none" transform="matrix(.75 0 0 .79 38 39)"/>
</svg>

